<svg width="19" height="20" viewBox="0 0 19 20" fill="none" xmlns="http://www.w3.org/2000/svg">
<path d="M11.081 1.75806H4.75838C4.33917 1.75806 3.93712 1.92459 3.64069 2.22102C3.34427 2.51745 3.17773 2.91949 3.17773 3.3387V15.9839C3.17773 16.4031 3.34427 16.8051 3.64069 17.1015C3.93712 17.398 4.33917 17.5645 4.75838 17.5645H14.2422C14.6615 17.5645 15.0635 17.398 15.3599 17.1015C15.6564 16.8051 15.8229 16.4031 15.8229 15.9839V6.49999L11.081 1.75806Z" stroke="white" stroke-width="0.998302" stroke-linecap="round" stroke-linejoin="round"/>
<path d="M11.0811 1.75806V6.49999H15.823" stroke="white" stroke-width="0.998302" stroke-linecap="round" stroke-linejoin="round"/>
<path d="M12.6614 10.4513H6.33887" stroke="white" stroke-width="0.998302" stroke-linecap="round" stroke-linejoin="round"/>
<path d="M12.6614 13.6128H6.33887" stroke="white" stroke-width="0.998302" stroke-linecap="round" stroke-linejoin="round"/>
<path d="M7.91951 7.29016H7.12919H6.33887" stroke="white" stroke-width="0.998302" stroke-linecap="round" stroke-linejoin="round"/>
</svg>
